<?xml version="1.0" standalone="yes"?>
<svg xmlns="http://www.w3.org/2000/svg" width="512" height="512">
<path style="fill:#ffffff; stroke:none;" d="M0 0L0 512L72 512C68.7713 509.358 65.2001 506.86 63.3179 503C59.9092 496.009 62 484.62 62 477L62 409L62 113L62 31C62 22.2866 58.9416 7.22879 66 1C60.049 -1.49713 51.4202 0 45 0L0 0z"/>
<path style="fill:#000000; stroke:none;" d="M66.1088 0.742279C60.3466 3.20999 62 11.985 62 17L62 65L62 270L62 442L62 487C62 493.071 60.7249 500.775 64.5139 505.981C70.2409 513.851 80.472 512 89 512L152 512L359 512L417 512C424.356 512 435.249 513.989 441.999 510.682C452.876 505.354 450 490.927 450 481L450 396L450 110L450 33L450 13C449.999 9.90729 450.512 5.99393 448.821 3.22839C444.804 -3.34198 434.368 1.66299 429 3.28009C421.619 5.50369 411.744 10.8497 404 10.1466C387.695 8.66626 374.949 -3.56592 358 2.00076C351.68 4.07642 345.351 6.05472 339 8.02545C335.742 9.03638 332.484 10.513 329 10.0556C316.643 8.43307 304.666 -0.766052 292 0.097229C279.71 0.934845 268.161 10.3488 256 10.3488C243.443 10.3488 231.779 0.342377 219 0.0547791C206.214 -0.232971 194.612 9.58411 182 10.1566C169.47 10.7255 157.569 0.353851 145 0.0547791C132.027 -0.253906 120.67 8.99634 108 10.1466C99.585 10.9106 87.9992 4.92465 80 2.33026C75.7631 0.956085 70.5332 -1.15253 66.1088 0.742279z"/>
<path style="fill:#ffffff; stroke:none;" d="M74 0C80.34 3.98959 88.9019 5.30063 96 7.66666C99.8248 8.94159 103.885 10.8504 108 10.4421C119.006 9.35022 129.049 2.61731 140 1C134.049 -1.49713 125.42 0 119 0L74 0M149 0C155.362 4.00345 163.834 5.56122 171 7.71991C174.514 8.77838 178.26 10.6598 182 10.49C192.565 10.0104 203.682 3.38696 214 1C208.049 -1.49713 199.42 0 193 0L149 0M223 0C229.284 3.83923 237.982 5.32727 245 7.66666C248.777 8.92551 252.937 10.9301 257 10.581C267.748 9.65768 278.37 3.19989 289 1C283.049 -1.49713 274.42 0 268 0L223 0M298 0C304.145 3.86682 312.126 5.14767 319 7.34412C322.782 8.55255 326.954 10.6737 331 10.49C341.63 10.0074 352.644 3.39578 363 1C357.049 -1.49713 348.42 0 342 0L298 0M372 0C378.317 3.4335 386.161 5.05588 393 7.33334C397.065 8.68701 401.633 10.7594 406 10.5008C416.558 9.87552 427.642 3.3963 438 1C432.049 -1.49713 423.42 0 417 0L372 0M446 0C452.466 8.30746 450 20.9538 450 31L450 106L450 397L450 481C450 492.433 452.34 505.241 440 511C446.436 513.701 456.049 512 463 512L512 512L512 0L446 0M78 19L78 496L434 497L434 19C424.151 21.0383 413.137 27.9166 403 26.8117C391.077 25.5123 380.039 16.7593 368 16.4846C355.478 16.1987 343.632 26.4612 331 26.8665C318.725 27.2604 307.004 18.1912 295 16.6111C282.337 14.9444 269.582 26.2043 257 26.892C243.915 27.6071 231.987 17.0563 219 16.5092C207.018 16.0045 194.976 25.6613 183 26.8009C169.963 28.0417 157.766 17.2553 145 16.4992C132.842 15.7792 120.997 25.5042 109 26.8117C98.8626 27.9166 87.8492 21.0383 78 19z"/>
<path style="fill:#000000; stroke:none;" d="M119 92C129.306 93.6773 127.906 109.187 136.21 113.971C140.198 116.269 145.959 113.636 146.549 108.995C146.949 105.858 144.642 102.622 143.23 100C141.265 96.3517 139.174 92.9908 138 89C147.602 84.4144 149.988 67.732 141.786 60.419C135.755 55.0413 125.464 55.9995 118 56C115.254 56.0002 111.731 55.4759 109.148 56.6034C104.775 58.5126 106 65.1638 106 69L106 99C106 102.775 105.019 108.257 106.603 111.772C108.369 115.689 115.575 116.049 117.972 112.566C119.696 110.063 119 105.868 119 103L119 92M170 103L170 91C173.739 91 179.417 92.0005 182.682 89.821C185.955 87.6357 185.338 82.3195 181.852 80.7423C178.466 79.2106 173.632 80 170 80L170 68C175.977 68 185.324 69.7829 190.856 67.3966C194.187 65.9594 195.221 61.2068 193.103 58.3179C191.239 55.7762 187.8 56.02 185 56.0008C178.668 55.9572 172.332 55.9674 166 56.0008C163.331 56.0148 159.81 55.6744 157.742 57.7423C154.959 60.5255 156 66.4428 156 70L156 101C156 104.557 154.959 110.475 157.742 113.258C161.092 116.607 169.679 115 174 115C178.784 115 189.891 117.063 193.103 112.682C195.221 109.793 194.187 105.041 190.856 103.603C185.324 101.217 175.977 103 170 103M216 56.4684C201.616 59.2338 202 72.259 202 84C202 90.5664 200.708 98.7788 203.148 105C207.216 115.374 221.513 117.365 230.999 113.867C237.321 111.535 245.626 101.268 240.138 94.4337C230.397 82.3017 225.848 112.592 216.742 99.8658C213.199 94.9131 213.815 79.7477 215.434 74.0154C216.251 71.1216 218.728 68.3148 221.999 68.5463C228.382 68.9981 230.871 84.8974 239.485 77.2577C243.35 73.8302 241.266 66.5211 238.567 63.0432C233.438 56.4344 223.801 54.9686 216 56.4684M264 103L264 91C267.851 91 273.203 91.9254 276.772 90.2577C280.226 88.6433 280.758 83.3808 277.566 81.179C274.187 78.8481 267.909 80 264 80L264 68C270.449 68 278.712 69.3929 284.941 67.6821C288.776 66.6292 290.141 61.5813 287.972 58.3179C286.251 55.7274 282.721 56.0195 280 56.0008C273.668 55.9572 267.332 55.9674 261 56.0008C258.303 56.015 254.711 55.6792 252.603 57.7423C249.865 60.4229 251 66.5375 251 70L251 101C251 104.463 249.865 110.577 252.603 113.258C255.883 116.469 263.815 115 268 115C272.719 115 284.992 117.192 287.971 112.682C290.109 109.447 288.564 104.565 284.891 103.434C278.773 101.55 270.377 103 264 103M301.148 56.7431C296.419 58.8531 298 66.8362 298 71C298 83.4796 296.107 97.6528 298.148 109.956C298.893 114.447 303.888 116.025 307.852 114.257C312.581 112.147 311 104.164 311 100C311 87.5204 312.893 73.3472 310.852 61.044C310.107 56.553 305.112 54.9746 301.148 56.7431M336 94C343.644 94 352.869 94.8839 358.657 88.7863C368.471 78.4461 362.865 59.0886 349 56.4676C343.521 55.4319 337.555 55.9625 332 56.0008C329.582 56.0174 326.474 55.7325 324.603 57.6034C322.348 59.8587 323.001 64.114 323 67L323 89C323 94.9963 322.891 101.004 323.005 106.999C323.051 109.478 323.01 112.286 325.318 113.821C328.296 115.802 333.651 115.212 335.258 111.772C337.475 107.026 336 99.1554 336 94M383 68C383 81.4393 380.95 96.7091 383.148 109.956C383.893 114.447 388.888 116.025 392.852 114.257C397.215 112.31 396 105.862 396 102L396 68C399.513 68 405.485 69.1216 408.486 66.9722C411.776 64.6159 411.011 59.0121 407.772 57.0278C405.072 55.3741 401.018 56.0002 398 56L380 56C377.295 56.0002 373.763 55.4604 371.228 56.6034C367.499 58.285 367.088 64.6683 370.434 66.9722C373.523 69.0996 379.421 68 383 68z"/>
<path style="fill:#ffffff; stroke:none;" d="M119 68L119 82C122.63 81.99 127.517 82.4482 130.566 80.0617C133.962 77.4045 133.534 71.2082 129.852 69.0278C126.868 67.261 122.328 68 119 68M336 68L336 84C339.512 83.9709 343.743 84.1672 346.772 82.0617C350.847 79.2288 350.842 71.9292 346.606 69.179C343.722 67.3072 339.273 68.0004 336 68z"/>
<path style="fill:#000000; stroke:none;" d="M104.044 161.742C97.145 164.554 98.0111 174.588 105.015 176.566C109.581 177.856 115.291 177 120 177L150 177L249 177L282 177C286.33 177 292.196 177.939 295.566 174.566C299.832 170.298 297.603 163.02 291.985 161.434C282.313 158.702 269.038 161 259 161L150 161L119 161C114.43 161 108.354 159.986 104.044 161.742M341.105 161.858C334.537 164.812 335.296 174.336 342.043 176.486C346.525 177.914 352.343 177 357 177L387 177C391.764 177 398.769 178.246 402.852 175.258C408.743 170.946 405.531 162.427 398.999 161.228C386.166 158.874 371.053 161 358 161C352.941 161 345.813 159.741 341.105 161.858M105.015 204.653C98.2798 206.833 96.8862 216.581 104.044 219.397C108.051 220.972 113.762 220 118 220L148 220L250 220L282 220C286.33 220 292.196 220.939 295.566 217.566C299.948 213.182 297.463 206.426 291.985 204.653C288.267 203.449 283.853 204 280 204L258 204L153 204L121 204C115.971 204 109.856 203.086 105.015 204.653M342.043 204.653C335.478 206.837 334.22 216.435 341.055 219.258C345.341 221.028 351.448 220 356 220L387 220C391.652 220 398.654 221.267 402.772 218.682C409.227 214.63 405.322 205.65 398.999 204.344C387.225 201.913 373.019 204 361 204C355.14 204 347.659 202.784 342.043 204.653M104.044 257.742C97.145 260.554 98.0111 270.588 105.015 272.566C109.581 273.856 115.291 273 120 273L150 273L249 273L282 273C286.33 273 292.196 273.939 295.566 270.566C299.832 266.298 297.603 259.02 291.985 257.434C282.313 254.702 269.038 257 259 257L150 257L119 257C114.43 257 108.354 255.986 104.044 257.742M341.105 257.858C334.537 260.812 335.296 270.336 342.043 272.486C346.525 273.914 352.343 273 357 273L387 273C391.764 273 398.769 274.246 402.852 271.258C408.743 266.946 405.531 258.427 398.999 257.228C386.166 254.874 371.053 257 358 257C352.941 257 345.813 255.741 341.105 257.858M105.015 300.653C98.2799 302.833 96.8861 312.581 104.044 315.397C108.051 316.972 113.762 316 118 316L148 316L250 316L282 316C286.33 316 292.196 316.939 295.566 313.566C299.89 309.24 297.361 302.436 291.96 300.653C288.266 299.433 283.834 300 280 300L258 300L153 300L121 300C115.971 300 109.856 299.086 105.015 300.653M342.044 300.653C335.584 302.81 334.338 312.483 341.055 315.258C345.341 317.028 351.449 316 356 316L387 316C391.652 316 398.654 317.267 402.772 314.682C409.227 310.63 405.322 301.65 398.999 300.344C387.225 297.913 373.019 300 361 300C355.145 300 347.654 298.78 342.044 300.653M369 434C361.857 432.303 353.205 422.956 346.015 424.362C337.786 425.971 338.134 436.829 342.394 441.907C348.573 449.27 359.816 451.924 369 452C369.14 456.255 372.271 462.602 377.401 458.127C379.321 456.453 379.168 453.559 381.317 451.985C385.722 448.757 391.557 448.366 395.996 444.671C407.661 434.96 409.723 415.121 400.387 403.04C395.547 396.777 386.683 392.365 379 391L379 367C384.628 367.831 392.41 373.187 397.956 371.218C404.673 368.833 404.618 359.535 399.867 355.419C394.738 350.976 385.505 350.279 379 350C378.714 346.256 376.944 341.777 372.147 343.623C368.982 344.841 368.842 348.914 365.853 350.49C363.131 351.926 359.821 352.227 357 353.518C349.665 356.878 343.211 363.79 342.185 372C340.79 383.164 343.216 393.349 353.001 399.895C357.164 402.681 365.221 404.127 367.972 408.394C369.509 410.776 368.999 414.308 369 417L369 434z"/>
<path style="fill:#ffffff; stroke:none;" d="M369 367C366.653 368.168 364.104 369.228 362.316 371.225C356.172 378.088 363.759 384.674 370 387C370 380.831 371.398 372.715 369 367z"/>
<path style="fill:#000000; stroke:none;" d="M106.015 374.533C98.9401 376.3 96.1866 386.306 104.044 389.397C108.051 390.972 113.762 390 118 390L148 390L250 390L283 390C287.053 390 292.453 390.896 295.566 387.682C300.316 382.78 296.873 376.003 290.985 374.533C280.662 371.956 267.618 374 257 374L155 374L123 374C117.546 374 111.342 373.203 106.015 374.533z"/>
<path style="fill:#ffffff; stroke:none;" d="M378 411L378 434C391.204 430.067 389.364 416.013 378 411z"/>
<path style="fill:#000000; stroke:none;" d="M103.059 419.028C93.819 424.088 101.837 433.044 109 433.826C124.317 435.5 140.59 434 156 434L248 434L281 434C285.775 433.998 291.973 434.533 295.566 430.697C299.479 426.519 297.501 419.746 291.985 418.318C282.189 415.783 269.118 418 259 418L147 418L117 418C112.822 418 106.851 416.951 103.059 419.028z"/>
</svg>
